{
	"asset":{
		"version":"2.0",
		"generator":"Created using the official Cinema 4D glTF Exporter 1.000x284978"
	},
	"scenes":[{
		"nodes":[0]
	}],
	"nodes":[{
		"name":"inside.1",
		"translation":[2.6645352591003758e-15,
		-6.976232051849365,
		4.996851921081543],
		"rotation":[0.0,
		-0.45399048924446108,
		0.0,
		0.8910065293312073],
		"scale":[1.0,
		1.0,
		1.0],
		"mesh":0
	}],
	"meshes":[{
		"name":"inside.1",
		"primitives":[{
			"attributes":{
				"POSITION":1,
				"NORMAL":2,
				"TEXCOORD_0":3
			},
			"indices":0,
			"material":0
		}]
	}],
	"accessors":[{
		"bufferView":0,
		"type":"SCALAR",
		"componentType":5123,
		"count":22836,
		"byteOffset":0,
		"min":[0],
		"max":[7420]
	},
	{
		"bufferView":1,
		"type":"VEC3",
		"componentType":5126,
		"count":7421,
		"byteOffset":0,
		"min":[-134.0615997314453,
		-200.0,
		-173.44154357910157],
		"max":[118.20487213134766,
		200.0,
		161.92095947265626]
	},
	{
		"bufferView":1,
		"type":"VEC3",
		"componentType":5126,
		"count":7421,
		"byteOffset":12,
		"min":[-0.9999492168426514,
		-0.9999855756759644,
		-0.9941932559013367],
		"max":[0.9999492168426514,
		0.9999855756759644,
		0.9941937923431397]
	},
	{
		"bufferView":1,
		"type":"VEC2",
		"componentType":5126,
		"count":7421,
		"byteOffset":24,
		"min":[0.0179371889680624,
		0.019976459443569185],
		"max":[0.9864073395729065,
		0.9853367805480957]
	}],
	"bufferViews":[{
		"buffer":0,
		"byteOffset":0,
		"byteLength":45672,
		"target":34963
	},
	{
		"buffer":0,
		"byteOffset":45672,
		"byteLength":237472,
		"target":34962,
		"byteStride":32
	}],
	"buffers":[{
		"uri":"data:application/octet-stream;base64,",
		"byteLength":283144
	}],
	"materials":[{
		"pbrMetallicRoughness":{
			"baseColorFactor":[1.0,
			1.0,
			1.0,
			1.0],
			"metallicFactor":1.0,
			"roughnessFactor":1.0
		},
		"emissiveFactor":[0.0,
		0.0,
		0.0],
		"alphaMode":"OPAQUE",
		"doubleSided":false,
		"name":""
	}]
}